<mxfile host="Electron" agent="Mozilla/5.0 (Macintosh; Intel Mac OS X 10_15_7) AppleWebKit/537.36 (KHTML, like Gecko) draw.io/26.1.1 Chrome/132.0.6834.210 Electron/34.3.3 Safari/537.36" version="26.1.1">
  <diagram id="1RkY9LuAhY5X1rQZCJpn" name="Page-1">
    <mxGraphModel dx="1114" dy="999" grid="1" gridSize="10" guides="1" tooltips="1" connect="1" arrows="1" fold="1" page="1" pageScale="1" pageWidth="850" pageHeight="1100" math="0" shadow="0">
      <root>
        <mxCell id="0" />
        <mxCell id="1" parent="0" />
        <mxCell id="2" value="Pandas数据处理流程" style="text;html=1;strokeColor=none;fillColor=none;align=center;verticalAlign=middle;whiteSpace=wrap;rounded=0;fontSize=22;fontStyle=1" parent="1" vertex="1">
          <mxGeometry x="260" y="50" width="330" height="30" as="geometry" />
        </mxCell>
        <mxCell id="3" value="数据导入" style="rounded=1;whiteSpace=wrap;html=1;fillColor=#dae8fc;strokeColor=#6c8ebf;fontSize=16;fontStyle=1" parent="1" vertex="1">
          <mxGeometry x="120" y="120" width="120" height="60" as="geometry" />
        </mxCell>
        <mxCell id="4" value="数据清洗" style="rounded=1;whiteSpace=wrap;html=1;fillColor=#d5e8d4;strokeColor=#82b366;fontSize=16;fontStyle=1" parent="1" vertex="1">
          <mxGeometry x="320" y="120" width="120" height="60" as="geometry" />
        </mxCell>
        <mxCell id="5" value="数据转换" style="rounded=1;whiteSpace=wrap;html=1;fillColor=#ffe6cc;strokeColor=#d79b00;fontSize=16;fontStyle=1" parent="1" vertex="1">
          <mxGeometry x="520" y="120" width="120" height="60" as="geometry" />
        </mxCell>
        <mxCell id="6" value="数据分析" style="rounded=1;whiteSpace=wrap;html=1;fillColor=#fff2cc;strokeColor=#d6b656;fontSize=16;fontStyle=1" parent="1" vertex="1">
          <mxGeometry x="320" y="360" width="120" height="60" as="geometry" />
        </mxCell>
        <mxCell id="7" value="数据可视化" style="rounded=1;whiteSpace=wrap;html=1;fillColor=#e1d5e7;strokeColor=#9673a6;fontSize=16;fontStyle=1" parent="1" vertex="1">
          <mxGeometry x="520" y="360" width="120" height="60" as="geometry" />
        </mxCell>
        <mxCell id="8" value="导出结果" style="rounded=1;whiteSpace=wrap;html=1;fillColor=#f8cecc;strokeColor=#b85450;fontSize=16;fontStyle=1" parent="1" vertex="1">
          <mxGeometry x="120" y="360" width="120" height="60" as="geometry" />
        </mxCell>
        <mxCell id="9" value="" style="shape=flexArrow;endArrow=classic;html=1;fontSize=16;fillColor=#dae8fc;strokeColor=#6c8ebf;" parent="1" edge="1">
          <mxGeometry width="50" height="50" relative="1" as="geometry">
            <mxPoint x="240" y="149.5" as="sourcePoint" />
            <mxPoint x="320" y="149.5" as="targetPoint" />
          </mxGeometry>
        </mxCell>
        <mxCell id="10" value="" style="shape=flexArrow;endArrow=classic;html=1;fontSize=16;fillColor=#d5e8d4;strokeColor=#82b366;" parent="1" edge="1">
          <mxGeometry width="50" height="50" relative="1" as="geometry">
            <mxPoint x="440" y="149.5" as="sourcePoint" />
            <mxPoint x="520" y="149.5" as="targetPoint" />
          </mxGeometry>
        </mxCell>
        <mxCell id="11" value="" style="shape=flexArrow;endArrow=classic;html=1;fontSize=16;fillColor=#ffe6cc;strokeColor=#d79b00;" parent="1" edge="1">
          <mxGeometry width="50" height="50" relative="1" as="geometry">
            <mxPoint x="580" y="180" as="sourcePoint" />
            <mxPoint x="580" y="240" as="targetPoint" />
          </mxGeometry>
        </mxCell>
        <mxCell id="12" value="" style="shape=flexArrow;endArrow=classic;html=1;fontSize=16;fillColor=#fff2cc;strokeColor=#d6b656;" parent="1" edge="1">
          <mxGeometry width="50" height="50" relative="1" as="geometry">
            <mxPoint x="440" y="389.5" as="sourcePoint" />
            <mxPoint x="520" y="389.5" as="targetPoint" />
          </mxGeometry>
        </mxCell>
        <mxCell id="13" value="" style="shape=flexArrow;endArrow=classic;html=1;fontSize=16;fillColor=#e1d5e7;strokeColor=#9673a6;" parent="1" edge="1">
          <mxGeometry width="50" height="50" relative="1" as="geometry">
            <mxPoint x="520" y="389.5" as="sourcePoint" />
            <mxPoint x="440" y="389.5" as="targetPoint" />
            <Array as="points">
              <mxPoint x="480" y="360" />
            </Array>
          </mxGeometry>
        </mxCell>
        <mxCell id="14" value="" style="shape=flexArrow;endArrow=classic;html=1;fontSize=16;fillColor=#fff2cc;strokeColor=#d6b656;" parent="1" edge="1">
          <mxGeometry width="50" height="50" relative="1" as="geometry">
            <mxPoint x="320" y="389.5" as="sourcePoint" />
            <mxPoint x="240" y="389.5" as="targetPoint" />
          </mxGeometry>
        </mxCell>
        <mxCell id="15" value="" style="shape=flexArrow;endArrow=classic;html=1;fontSize=16;fillColor=#fff2cc;strokeColor=#d6b656;" parent="1" edge="1">
          <mxGeometry width="50" height="50" relative="1" as="geometry">
            <mxPoint x="370" y="240" as="sourcePoint" />
            <mxPoint x="370" y="360" as="targetPoint" />
          </mxGeometry>
        </mxCell>
        <mxCell id="16" value="CSV" style="shape=document;whiteSpace=wrap;html=1;boundedLbl=1;fontSize=12;fillColor=#dae8fc;strokeColor=#6c8ebf;" parent="1" vertex="1">
          <mxGeometry x="60" y="100" width="50" height="40" as="geometry" />
        </mxCell>
        <mxCell id="17" value="Excel" style="shape=document;whiteSpace=wrap;html=1;boundedLbl=1;fontSize=12;fillColor=#dae8fc;strokeColor=#6c8ebf;" parent="1" vertex="1">
          <mxGeometry x="60" y="150" width="50" height="40" as="geometry" />
        </mxCell>
        <mxCell id="18" value="SQL" style="shape=cylinder3;whiteSpace=wrap;html=1;boundedLbl=1;backgroundOutline=1;size=15;fontSize=12;fillColor=#dae8fc;strokeColor=#6c8ebf;" parent="1" vertex="1">
          <mxGeometry x="150" y="60" width="60" height="50" as="geometry" />
        </mxCell>
        <mxCell id="19" value="JSON" style="shape=document;whiteSpace=wrap;html=1;boundedLbl=1;fontSize=12;fillColor=#dae8fc;strokeColor=#6c8ebf;" parent="1" vertex="1">
          <mxGeometry x="230" y="80" width="50" height="40" as="geometry" />
        </mxCell>
        <mxCell id="20" value="PDF" style="shape=document;whiteSpace=wrap;html=1;boundedLbl=1;fontSize=12;fillColor=#f8cecc;strokeColor=#b85450;" parent="1" vertex="1">
          <mxGeometry x="60" y="360" width="50" height="40" as="geometry" />
        </mxCell>
        <mxCell id="21" value="Excel" style="shape=document;whiteSpace=wrap;html=1;boundedLbl=1;fontSize=12;fillColor=#f8cecc;strokeColor=#b85450;" parent="1" vertex="1">
          <mxGeometry x="60" y="410" width="50" height="40" as="geometry" />
        </mxCell>
        <mxCell id="22" value="SQL" style="shape=cylinder3;whiteSpace=wrap;html=1;boundedLbl=1;backgroundOutline=1;size=15;fontSize=12;fillColor=#f8cecc;strokeColor=#b85450;" parent="1" vertex="1">
          <mxGeometry x="120" y="430" width="60" height="50" as="geometry" />
        </mxCell>
        <mxCell id="23" value="CSV" style="shape=document;whiteSpace=wrap;html=1;boundedLbl=1;fontSize=12;fillColor=#f8cecc;strokeColor=#b85450;" parent="1" vertex="1">
          <mxGeometry x="255" y="400" width="50" height="40" as="geometry" />
        </mxCell>
        <mxCell id="24" value="pd.read_csv()&lt;br&gt;pd.read_excel()&lt;br&gt;pd.read_sql()&lt;br&gt;pd.read_json()" style="text;html=1;strokeColor=none;fillColor=none;align=left;verticalAlign=middle;whiteSpace=wrap;rounded=0;fontSize=10;" parent="1" vertex="1">
          <mxGeometry x="130" y="190" width="100" height="60" as="geometry" />
        </mxCell>
        <mxCell id="25" value="df.to_csv()&lt;br&gt;df.to_excel()&lt;br&gt;df.to_sql()&lt;br&gt;df.to_json()" style="text;html=1;strokeColor=none;fillColor=none;align=left;verticalAlign=middle;whiteSpace=wrap;rounded=0;fontSize=10;" parent="1" vertex="1">
          <mxGeometry x="130" y="300" width="100" height="60" as="geometry" />
        </mxCell>
        <mxCell id="26" value="- 处理缺失值&lt;br&gt;df.dropna()&lt;br&gt;df.fillna()&lt;br&gt;- 重复数据&lt;br&gt;df.drop_duplicates()&lt;br&gt;- 异常值检测&lt;br&gt;df.describe()" style="text;html=1;strokeColor=none;fillColor=none;align=left;verticalAlign=middle;whiteSpace=wrap;rounded=0;fontSize=10;" parent="1" vertex="1">
          <mxGeometry x="335" y="190" width="130" height="60" as="geometry" />
        </mxCell>
        <mxCell id="27" value="- 数据类型转换&lt;br&gt;df.astype()&lt;br&gt;- 特征工程&lt;br&gt;df[&#39;new&#39;] = df[&#39;old&#39;] * 2&lt;br&gt;- 重塑数据&lt;br&gt;df.pivot(), df.melt()&lt;br&gt;- 分组聚合&lt;br&gt;df.groupby().agg()" style="text;html=1;strokeColor=none;fillColor=none;align=left;verticalAlign=middle;whiteSpace=wrap;rounded=0;fontSize=10;" parent="1" vertex="1">
          <mxGeometry x="510" y="190" width="140" height="85" as="geometry" />
        </mxCell>
        <mxCell id="28" value="- 描述性统计&lt;br&gt;df.describe()&lt;br&gt;df.corr()&lt;br&gt;- 假设检验&lt;br&gt;- 时间序列分析&lt;br&gt;- 机器学习模型" style="text;html=1;strokeColor=none;fillColor=none;align=left;verticalAlign=middle;whiteSpace=wrap;rounded=0;fontSize=10;" parent="1" vertex="1">
          <mxGeometry x="330" y="430" width="130" height="60" as="geometry" />
        </mxCell>
        <mxCell id="29" value="- Matplotlib&lt;br&gt;df.plot()&lt;br&gt;- Seaborn&lt;br&gt;sns.heatmap(df.corr())&lt;br&gt;- Plotly&lt;br&gt;- 交互式可视化&lt;br&gt;- 仪表板" style="text;html=1;strokeColor=none;fillColor=none;align=left;verticalAlign=middle;whiteSpace=wrap;rounded=0;fontSize=10;" parent="1" vertex="1">
          <mxGeometry x="530" y="440" width="140" height="60" as="geometry" />
        </mxCell>
        <mxCell id="30" value="&lt;b&gt;DataFrame创建&lt;/b&gt;" style="text;html=1;strokeColor=none;fillColor=none;align=center;verticalAlign=middle;whiteSpace=wrap;rounded=0;fontSize=10;" parent="1" vertex="1">
          <mxGeometry x="240" y="125" width="80" height="20" as="geometry" />
        </mxCell>
        <mxCell id="31" value="&lt;b&gt;数据质量改进&lt;/b&gt;" style="text;html=1;strokeColor=none;fillColor=none;align=center;verticalAlign=middle;whiteSpace=wrap;rounded=0;fontSize=10;" parent="1" vertex="1">
          <mxGeometry x="440" y="125" width="80" height="20" as="geometry" />
        </mxCell>
        <mxCell id="32" value="&lt;b&gt;特征工程与结构调整&lt;/b&gt;" style="text;html=1;strokeColor=none;fillColor=none;align=center;verticalAlign=middle;whiteSpace=wrap;rounded=0;fontSize=10;" parent="1" vertex="1">
          <mxGeometry x="590" y="190" width="100" height="30" as="geometry" />
        </mxCell>
        <mxCell id="33" value="&lt;b&gt;洞察挖掘与报告&lt;/b&gt;" style="text;html=1;strokeColor=none;fillColor=none;align=center;verticalAlign=middle;whiteSpace=wrap;rounded=0;fontSize=10;" parent="1" vertex="1">
          <mxGeometry x="370" y="280" width="100" height="30" as="geometry" />
        </mxCell>
        <mxCell id="34" value="&lt;b&gt;图形呈现&lt;/b&gt;" style="text;html=1;strokeColor=none;fillColor=none;align=center;verticalAlign=middle;whiteSpace=wrap;rounded=0;fontSize=10;" parent="1" vertex="1">
          <mxGeometry x="480" y="365" width="70" height="20" as="geometry" />
        </mxCell>
        <mxCell id="35" value="&lt;b&gt;结果共享&lt;/b&gt;" style="text;html=1;strokeColor=none;fillColor=none;align=center;verticalAlign=middle;whiteSpace=wrap;rounded=0;fontSize=10;" parent="1" vertex="1">
          <mxGeometry x="260" y="365" width="80" height="20" as="geometry" />
        </mxCell>
        <mxCell id="36" value="循环迭代" style="text;html=1;strokeColor=none;fillColor=none;align=center;verticalAlign=middle;whiteSpace=wrap;rounded=0;fontSize=14;fontStyle=1" parent="1" vertex="1">
          <mxGeometry x="385" y="320" width="80" height="30" as="geometry" />
        </mxCell>
        <mxCell id="37" value="API" style="ellipse;shape=cloud;whiteSpace=wrap;html=1;fontSize=12;fillColor=#dae8fc;strokeColor=#6c8ebf;" parent="1" vertex="1">
          <mxGeometry x="50" y="50" width="70" height="50" as="geometry" />
        </mxCell>
        <mxCell id="38" value="Web" style="ellipse;shape=cloud;whiteSpace=wrap;html=1;fontSize=12;fillColor=#f8cecc;strokeColor=#b85450;" parent="1" vertex="1">
          <mxGeometry x="200" y="430" width="70" height="50" as="geometry" />
        </mxCell>
        <mxCell id="39" value="1" style="ellipse;whiteSpace=wrap;html=1;aspect=fixed;fontSize=12;fillColor=#dae8fc;strokeColor=#6c8ebf;" parent="1" vertex="1">
          <mxGeometry x="120" y="110" width="20" height="20" as="geometry" />
        </mxCell>
        <mxCell id="40" value="2" style="ellipse;whiteSpace=wrap;html=1;aspect=fixed;fontSize=12;fillColor=#d5e8d4;strokeColor=#82b366;" parent="1" vertex="1">
          <mxGeometry x="320" y="110" width="20" height="20" as="geometry" />
        </mxCell>
        <mxCell id="41" value="3" style="ellipse;whiteSpace=wrap;html=1;aspect=fixed;fontSize=12;fillColor=#ffe6cc;strokeColor=#d79b00;" parent="1" vertex="1">
          <mxGeometry x="520" y="110" width="20" height="20" as="geometry" />
        </mxCell>
        <mxCell id="42" value="4" style="ellipse;whiteSpace=wrap;html=1;aspect=fixed;fontSize=12;fillColor=#fff2cc;strokeColor=#d6b656;" parent="1" vertex="1">
          <mxGeometry x="320" y="350" width="20" height="20" as="geometry" />
        </mxCell>
        <mxCell id="43" value="5" style="ellipse;whiteSpace=wrap;html=1;aspect=fixed;fontSize=12;fillColor=#e1d5e7;strokeColor=#9673a6;" parent="1" vertex="1">
          <mxGeometry x="520" y="350" width="20" height="20" as="geometry" />
        </mxCell>
        <mxCell id="44" value="6" style="ellipse;whiteSpace=wrap;html=1;aspect=fixed;fontSize=12;fillColor=#f8cecc;strokeColor=#b85450;" parent="1" vertex="1">
          <mxGeometry x="120" y="350" width="20" height="20" as="geometry" />
        </mxCell>
        <mxCell id="45" value="原始数据" style="text;html=1;strokeColor=none;fillColor=none;align=center;verticalAlign=middle;whiteSpace=wrap;rounded=0;fontSize=12;fontStyle=1" parent="1" vertex="1">
          <mxGeometry x="50" y="20" width="70" height="30" as="geometry" />
        </mxCell>
        <mxCell id="46" value="项目成果" style="text;html=1;strokeColor=none;fillColor=none;align=center;verticalAlign=middle;whiteSpace=wrap;rounded=0;fontSize=12;fontStyle=1" parent="1" vertex="1">
          <mxGeometry x="250" y="480" width="70" height="30" as="geometry" />
        </mxCell>
        <mxCell id="47" value="&lt;span style=&quot;font-weight: 700;&quot;&gt;拆分-应用-组合&lt;/span&gt;" style="text;html=1;strokeColor=none;fillColor=none;align=center;verticalAlign=middle;whiteSpace=wrap;rounded=0;fontSize=10;" parent="1" vertex="1">
          <mxGeometry x="400" y="100" width="150" height="20" as="geometry" />
        </mxCell>
        <mxCell id="48" value="" style="shape=curlyBracket;whiteSpace=wrap;html=1;rounded=1;labelPosition=left;verticalLabelPosition=middle;align=right;verticalAlign=middle;rotation=-180;size=0.5;fontSize=12;fillColor=#f5f5f5;strokeWidth=2;strokeColor=#666666;fontColor=#333333;" parent="1" vertex="1">
          <mxGeometry x="650" y="120" width="20" height="300" as="geometry" />
        </mxCell>
        <mxCell id="49" value="Pandas&lt;br&gt;核心功能" style="text;html=1;strokeColor=none;fillColor=none;align=center;verticalAlign=middle;whiteSpace=wrap;rounded=0;fontSize=14;fontStyle=1" parent="1" vertex="1">
          <mxGeometry x="670" y="255" width="80" height="30" as="geometry" />
        </mxCell>
        <mxCell id="50" value="" style="curved=1;endArrow=classic;html=1;fontSize=14;exitX=0.5;exitY=1;exitDx=0;exitDy=0;entryX=0;entryY=0.5;entryDx=0;entryDy=0;dashed=1;strokeWidth=2;fillColor=#f5f5f5;strokeColor=#666666;" parent="1" source="8" target="3" edge="1">
          <mxGeometry width="50" height="50" relative="1" as="geometry">
            <mxPoint x="400" y="300" as="sourcePoint" />
            <mxPoint x="450" y="250" as="targetPoint" />
            <Array as="points">
              <mxPoint x="90" y="430" />
              <mxPoint x="30" y="300" />
              <mxPoint x="50" y="150" />
            </Array>
          </mxGeometry>
        </mxCell>
        <mxCell id="51" value="迭代改进" style="text;html=1;strokeColor=none;fillColor=none;align=center;verticalAlign=middle;whiteSpace=wrap;rounded=0;fontSize=14;fontStyle=1" parent="1" vertex="1">
          <mxGeometry x="20" y="255" width="80" height="30" as="geometry" />
        </mxCell>
      </root>
    </mxGraphModel>
  </diagram>
</mxfile>
